# This file uses centimeters as units for non-parametric coordinates.

v -3.783031 0.989542 -0.000000
v -3.806814 1.274938 -0.000000
v -4.258692 1.429529 -0.000000
v -4.223017 0.965760 -0.000000
v -3.723574 1.572227 -0.000000
v -4.282475 1.976538 -0.000000
v -4.223017 2.178693 -0.000000
v -3.592767 2.000322 -0.000000
v -2.903059 1.167916 -0.000000
v -2.908630 1.578141 -0.000000
v -1.749583 1.084674 -0.000000
v -1.820932 1.845731 -0.000000
v -1.963630 2.963534 -0.000000
v -1.963630 3.355954 -0.000000
v -3.057649 3.106232 -0.000000
v -2.998191 2.678137 -0.000000
v -2.260918 2.666247 -0.000000
v -2.558205 2.630572 -0.000000
v -1.927955 2.666247 -0.000000
v -2.023087 2.380849 -0.000000
v -3.128998 2.368959 -0.000000
v -2.938734 2.166803 -0.000000
v -2.609299 2.075365 -0.000000
v -2.260918 2.119236 -0.000000
v -3.224130 4.687804 -0.000000
v -0.001530 5.318054 -0.000000
v 0.747635 4.604562 -0.000000
v 0.081710 3.677024 -0.000000
v 0.557371 3.415411 -0.000000
v 1.377885 4.105119 -0.000000
v 1.235187 4.616455 -0.000000
v 1.948678 3.772156 -0.000000
v 2.222183 4.937525 -0.000000
v 1.151947 3.308387 -0.000000
v 1.996244 2.154911 -0.000000
v 3.125938 3.938637 -0.000000
v 0.783310 2.297610 -0.000000
v 1.354102 1.833841 -0.000000
v 1.853546 1.667359 -0.000000
v 1.831395 3.541001 -0.000000
v 1.417196 3.782617 -0.000000
v 1.253243 3.204464 -0.000000
v 1.865911 2.367439 -0.000000
v 2.685678 3.661808 -0.000000
v 1.399938 2.134453 -0.000000
v 0.985740 2.470989 -0.000000
v 1.762361 2.013645 -0.000000
v 1.832733 3.341577 -0.000000
v 1.547022 3.508242 -0.000000
v 1.433928 3.109437 -0.000000
v 1.856542 2.532064 -0.000000
v 2.422011 3.424910 -0.000000
v 1.535117 2.371352 -0.000000
v 1.249407 2.603491 -0.000000
v 1.785114 2.288020 -0.000000
v 1.664361 2.880759 -0.000000
v 1.774530 3.166509 -0.000000
v 1.609276 3.262907 -0.000000
v 1.543864 3.032241 -0.000000
v 1.788301 2.698291 -0.000000
v 2.115365 3.214709 -0.000000
v 1.602391 2.605336 -0.000000
v 1.437138 2.739604 -0.000000
v 1.746988 2.557137 -0.000000
v 0.688178 0.038221 -0.000000
v 2.781084 0.169029 -0.000000
v 2.495688 1.488986 -0.000000
v 2.959457 0.704146 -0.000000
v 4.814533 1.120349 -0.000000
v 4.160499 2.190586 -0.000000
vt 0.000000 0.000000
vt 0.599172 0.000000
vt 1.000000 0.915290
vt 0.026860 0.921487
vt 0.000000 0.000000
vt 1.000000 0.000000
vt 1.000000 1.000000
vt 0.000000 1.000000
vt 0.000000 0.000000
vt 1.000000 0.000000
vt 1.000000 1.000000
vt 0.000000 1.000000
vt 0.000000 0.000000
vt 1.000000 0.000000
vt 1.000000 1.000000
vt 0.000000 1.000000
vt 0.000000 0.000000
vt 1.000000 0.000000
vt 1.000000 1.000000
vt 0.000000 1.000000
vt 0.000000 0.000000
vt 1.000000 0.000000
vt 1.000000 1.000000
vt 0.000000 1.000000
vt 0.000000 0.000000
vt 1.000000 0.000000
vt 1.000000 1.000000
vt 0.000000 1.000000
vt 0.000000 0.000000
vt 1.000000 0.000000
vt 1.000000 1.000000
vt 0.000000 1.000000
vt 0.000000 0.000000
vt 1.000000 0.000000
vt 1.000000 1.000000
vt 0.000000 1.000000
vt 0.000000 0.000000
vt 1.000000 0.000000
vt 1.000000 1.000000
vt 0.000000 1.000000
vt 0.000000 0.000000
vt 1.000000 0.000000
vt 1.000000 1.000000
vt 0.000000 1.000000
vt 0.000000 0.000000
vt 1.000000 0.000000
vt 1.000000 1.000000
vt 0.000000 1.000000
vt 0.000000 0.000000
vt 1.000000 0.000000
vt 1.000000 1.000000
vt 0.000000 1.000000
vt 0.000000 0.000000
vt 1.000000 0.000000
vt 1.000000 1.000000
vt 0.000000 1.000000
vt 0.000000 0.000000
vt 1.000000 0.000000
vt 1.000000 1.000000
vt 0.000000 1.000000
vt 0.000000 0.000000
vt 1.000000 0.000000
vt 1.000000 1.000000
vt 0.000000 1.000000
vt 0.000000 0.000000
vt 1.000000 0.000000
vt 1.000000 1.000000
vt 0.000000 1.000000
vt 0.000000 0.000000
vt 1.000000 0.000000
vt 1.000000 1.000000
vt 0.000000 1.000000
vt 0.000000 0.000000
vt 1.000000 0.000000
vt 1.000000 1.000000
vt 0.000000 1.000000
vt 1.000000 0.000000
vt 1.000000 1.000000
vt 0.000000 1.000000
vt 1.000000 1.000000
vt 0.000000 1.000000
vt 0.000000 0.000000
vt 1.000000 1.000000
vt 0.000000 1.000000
vt 0.000000 0.000000
vt 1.000000 1.000000
vt 0.000000 1.000000
vt 0.000000 0.000000
vt 1.000000 0.000000
vt 1.000000 1.000000
vt 0.000000 1.000000
vt 1.000000 1.000000
vt 0.000000 1.000000
vt 0.000000 0.000000
vt 1.000000 1.000000
vt 0.000000 1.000000
vt 0.000000 0.000000
vt 1.000000 1.000000
vt 0.000000 1.000000
vt 0.000000 0.000000
vt 1.000000 0.000000
vt 1.000000 1.000000
vt 0.000000 1.000000
vt 1.000000 1.000000
vt 0.000000 1.000000
vt 0.000000 0.000000
vt 1.000000 1.000000
vt 0.000000 1.000000
vt 0.000000 0.000000
vt 1.000000 1.000000
vt 0.000000 1.000000
vt 0.000000 0.000000
vt 0.000000 0.000000
vt 1.000000 0.000000
vt 1.000000 1.000000
vt 0.000000 1.000000
vt 0.000000 0.000000
vt 1.000000 0.000000
vt 1.000000 1.000000
vt 0.000000 1.000000
vt 0.000000 0.000000
vt 1.000000 0.000000
vt 1.000000 1.000000
vt 0.000000 1.000000
vn 0.000000 0.000000 1.000000
vn 0.000000 0.000000 1.000000
vn 0.000000 0.000000 1.000000
vn 0.000000 0.000000 1.000000
vn 0.000000 0.000000 1.000000
vn 0.000000 0.000000 1.000000
vn 0.000000 0.000000 1.000000
vn 0.000000 0.000000 1.000000
vn 0.000000 0.000000 1.000000
vn 0.000000 0.000000 1.000000
vn 0.000000 0.000000 1.000000
vn 0.000000 0.000000 1.000000
vn 0.000000 0.000000 1.000000
vn 0.000000 0.000000 1.000000
vn 0.000000 0.000000 1.000000
vn 0.000000 0.000000 1.000000
vn 0.000000 0.000000 1.000000
vn 0.000000 0.000000 1.000000
vn 0.000000 0.000000 1.000000
vn 0.000000 0.000000 1.000000
vn 0.000000 0.000000 1.000000
vn 0.000000 0.000000 1.000000
vn 0.000000 0.000000 1.000000
vn 0.000000 0.000000 1.000000
vn 0.000000 0.000000 1.000000
vn 0.000000 0.000000 1.000000
vn 0.000000 0.000000 1.000000
vn 0.000000 0.000000 1.000000
vn 0.000000 0.000000 1.000000
vn 0.000000 0.000000 1.000000
vn 0.000000 0.000000 1.000000
vn 0.000000 0.000000 1.000000
vn 0.000000 0.000000 1.000000
vn 0.000000 0.000000 1.000000
vn 0.000000 0.000000 1.000000
vn 0.000000 0.000000 1.000000
vn 0.000000 0.000000 1.000000
vn 0.000000 0.000000 1.000000
vn 0.000000 0.000000 1.000000
vn 0.000000 0.000000 1.000000
vn 0.000000 0.000000 1.000000
vn 0.000000 0.000000 1.000000
vn 0.000000 0.000000 1.000000
vn 0.000000 0.000000 1.000000
vn 0.000000 0.000000 1.000000
vn 0.000000 0.000000 1.000000
vn 0.000000 0.000000 1.000000
vn 0.000000 0.000000 1.000000
vn 0.000000 0.000000 1.000000
vn 0.000000 0.000000 1.000000
vn 0.000000 0.000000 1.000000
vn 0.000000 0.000000 1.000000
vn 0.000000 0.000000 1.000000
vn 0.000000 0.000000 1.000000
vn 0.000000 0.000000 1.000000
vn 0.000000 0.000000 1.000000
vn 0.000000 0.000000 1.000000
vn 0.000000 0.000000 1.000000
vn 0.000000 0.000000 1.000000
vn 0.000000 0.000000 1.000000
vn 0.000000 0.000000 1.000000
vn 0.000000 0.000000 1.000000
vn 0.000000 0.000000 1.000000
vn 0.000000 0.000000 1.000000
vn 0.000000 0.000000 1.000000
vn 0.000000 0.000000 1.000000
vn 0.000000 0.000000 1.000000
vn 0.000000 0.000000 1.000000
vn 0.000000 0.000000 1.000000
vn 0.000000 0.000000 1.000000
vn 0.000000 0.000000 1.000000
vn 0.000000 0.000000 1.000000
vn 0.000000 0.000000 1.000000
vn 0.000000 0.000000 1.000000
vn 0.000000 0.000000 1.000000
vn 0.000000 0.000000 1.000000
vn 0.000000 0.000000 1.000000
vn 0.000000 0.000000 1.000000
vn 0.000000 0.000000 1.000000
vn 0.000000 0.000000 1.000000
vn 0.000000 0.000000 1.000000
vn 0.000000 0.000000 1.000000
vn 0.000000 0.000000 1.000000
vn 0.000000 0.000000 1.000000
vn 0.000000 0.000000 1.000000
vn 0.000000 0.000000 1.000000
vn 0.000000 0.000000 1.000000
vn 0.000000 0.000000 1.000000
vn 0.000000 0.000000 1.000000
vn 0.000000 0.000000 1.000000
vn 0.000000 0.000000 1.000000
vn 0.000000 0.000000 1.000000
vn 0.000000 0.000000 1.000000
vn 0.000000 0.000000 1.000000
vn 0.000000 0.000000 1.000000
vn 0.000000 0.000000 1.000000
vn 0.000000 0.000000 1.000000
vn 0.000000 0.000000 1.000000
vn 0.000000 0.000000 1.000000
vn 0.000000 0.000000 1.000000
vn 0.000000 0.000000 1.000000
vn 0.000000 0.000000 1.000000
vn 0.000000 0.000000 1.000000
vn 0.000000 0.000000 1.000000
vn 0.000000 0.000000 1.000000
vn 0.000000 0.000000 1.000000
vn 0.000000 0.000000 1.000000
vn 0.000000 0.000000 1.000000
vn 0.000000 0.000000 1.000000
vn 0.000000 0.000000 1.000000
vn 0.000000 0.000000 1.000000
vn 0.000000 0.000000 1.000000
vn 0.000000 0.000000 1.000000
vn 0.000000 0.000000 1.000000
vn 0.000000 0.000000 1.000000
vn 0.000000 0.000000 1.000000
vn 0.000000 0.000000 1.000000
vn 0.000000 0.000000 1.000000
vn 0.000000 0.000000 1.000000
vn 0.000000 0.000000 1.000000
vn 0.000000 0.000000 1.000000
vn 0.000000 0.000000 1.000000
vn 0.000000 0.000000 1.000000
vn 0.000000 0.000000 1.000000
vn 0.000000 0.000000 1.000000
vn 0.000000 0.000000 1.000000
vn 0.000000 0.000000 1.000000
vn 0.000000 0.000000 1.000000
vn 0.000000 0.000000 1.000000
vn 0.000000 0.000000 1.000000
vn 0.000000 0.000000 1.000000
vn 0.000000 0.000000 1.000000
vn 0.000000 0.000000 1.000000
vn 0.000000 0.000000 1.000000
vn 0.000000 0.000000 1.000000
vn 0.000000 0.000000 1.000000
vn 0.000000 0.000000 1.000000
vn 0.000000 0.000000 1.000000
vn 0.000000 0.000000 1.000000
vn 0.000000 0.000000 1.000000
vn 0.000000 0.000000 1.000000
vn 0.000000 0.000000 1.000000
vn 0.000000 0.000000 1.000000
vn 0.000000 0.000000 1.000000
vn 0.000000 0.000000 1.000000
vn 0.000000 0.000000 1.000000
vn 0.000000 0.000000 1.000000
vn 0.000000 0.000000 1.000000
vn 0.000000 0.000000 1.000000
vn 0.000000 0.000000 1.000000
vn 0.000000 0.000000 1.000000
vn 0.000000 0.000000 1.000000
vn 0.000000 0.000000 1.000000
vn 0.000000 0.000000 1.000000
vn 0.000000 0.000000 1.000000
vn 0.000000 0.000000 1.000000
vn 0.000000 0.000000 1.000000
vn 0.000000 0.000000 1.000000
vn 0.000000 0.000000 1.000000
vn 0.000000 0.000000 1.000000
vn 0.000000 0.000000 1.000000
vn 0.000000 0.000000 1.000000
vn 0.000000 0.000000 1.000000
vn 0.000000 0.000000 1.000000
vn 0.000000 0.000000 1.000000
vn 0.000000 0.000000 1.000000
vn 0.000000 0.000000 1.000000
vn 0.000000 0.000000 1.000000
vn 0.000000 0.000000 1.000000
vn 0.000000 0.000000 1.000000
vn 0.000000 0.000000 1.000000
vn 0.000000 0.000000 1.000000
vn 0.000000 0.000000 1.000000
vn 0.000000 0.000000 1.000000
vn 0.000000 0.000000 1.000000
vn 0.000000 0.000000 1.000000
vn 0.000000 0.000000 1.000000
vn 0.000000 0.000000 1.000000
vn 0.000000 0.000000 1.000000
vn 0.000000 0.000000 1.000000
vn 0.000000 0.000000 1.000000
vn 0.000000 0.000000 1.000000
vn 0.000000 0.000000 1.000000
vn 0.000000 0.000000 1.000000
s off
f 1/1/1 2/2/2 3/3/3 4/4/4
f 3/5/5 2/6/6 5/7/7 6/8/8
f 8/9/9 7/10/10 6/11/11 5/12/12
f 10/13/13 5/14/14 2/15/15 9/16/16
f 12/17/17 10/18/18 9/19/19 11/20/20
f 16/21/21 13/22/22 14/23/23 15/24/24
f 18/25/25 17/26/26 13/27/27 16/28/28
f 20/29/29 19/30/30 13/31/31 17/32/32
f 16/33/33 21/34/34 22/35/35 18/36/36
f 24/37/37 17/38/38 18/39/39 23/40/40
f 24/41/41 23/42/42 10/43/43 12/44/44
f 26/45/45 25/46/46 15/47/47 14/48/48
f 29/49/49 27/50/50 26/51/51 28/52/52
f 29/53/53 30/54/54 31/55/55 27/56/56
f 33/57/57 31/58/58 30/59/59 32/60/60
f 56/61/61 57/101/62 58/102/63 59/103/64
f 57/106/65 56/66/66 60/104/67 61/105/68
f 62/109/69 56/70/70 59/107/71 63/108/72
f 60/112/73 56/74/74 62/110/75 64/111/76
f 32/62/77 30/63/78 41/78/79 40/77/80
f 30/63/81 34/64/82 42/79/83 41/78/84
f 35/67/85 36/68/86 44/81/87 43/80/88
f 36/68/89 32/65/90 40/82/91 44/81/92
f 34/71/93 37/72/94 46/84/95 42/83/96
f 37/72/97 38/69/98 45/85/99 46/84/100
f 38/75/101 39/76/102 47/87/103 45/86/104
f 39/76/105 35/73/106 43/88/107 47/87/108
f 40/77/109 41/78/110 49/90/111 48/89/112
f 41/78/113 42/79/114 50/91/115 49/90/116
f 43/80/117 44/81/118 52/93/119 51/92/120
f 44/81/121 40/82/122 48/94/123 52/93/124
f 42/83/125 46/84/126 54/96/127 50/95/128
f 46/84/129 45/85/130 53/97/131 54/96/132
f 45/86/133 47/87/134 55/99/135 53/98/136
f 47/87/137 43/88/138 51/100/139 55/99/140
f 48/89/141 49/90/142 58/102/143 57/101/144
f 49/90/145 50/91/146 59/103/147 58/102/148
f 51/92/149 52/93/150 61/105/151 60/104/152
f 52/93/153 48/94/154 57/106/155 61/105/156
f 50/95/157 54/96/158 63/108/159 59/107/160
f 54/96/161 53/97/162 62/109/163 63/108/164
f 53/98/165 55/99/166 64/111/167 62/110/168
f 55/99/169 51/100/170 60/112/171 64/111/172
f 66/113/173 39/114/174 38/115/175 65/116/176
f 68/117/177 67/118/178 39/119/179 66/120/180
f 70/121/181 67/122/182 68/123/183 69/124/184
